<?xml version="1.0" encoding="utf-8"?>
<!-- Generator: Adobe Illustrator 21.0.1, SVG Export Plug-In . SVG Version: 6.00 Build 0)  -->
<svg version="1.1" id="Layer_1" xmlns="http://www.w3.org/2000/svg" xmlns:xlink="http://www.w3.org/1999/xlink" x="0px" y="0px"
	 viewBox="0 0 90 180" style="enable-background:new 0 0 90 180;" xml:space="preserve">
<style type="text/css">
	.st0{fill:#333333;}
	.st1{fill:#A99060;}
	.st2{fill:#FFFFFF;}
</style>
<g>
	<path class="st0" d="M46.4,119.2c-0.1-0.2-0.2-0.3-0.4-0.2c-0.2,0-0.3,0.2-0.3,0.4v17.7c0,0.2,0.1,0.3,0.2,0.4
		c1.1,0.4,1.8,1.4,1.8,2.6c0,1.5-1.2,2.8-2.8,2.8s-2.8-1.2-2.8-2.8c0-1.2,0.7-2.2,1.9-2.6c0.2-0.1,0.3-0.2,0.3-0.4v-17.7
		c0-0.2-0.1-0.3-0.3-0.4c-0.2,0-0.4,0.1-0.4,0.2c-1.8,5-5.3,12.3-8.7,18.6c-1.3,2.4-1.5,4.5-0.5,6.2c0.3,0.5,0.6,1.1,1,1.6
		c1.7,2.8,3.6,6,3.6,7.9c0,0.1,0,0.2,0.1,0.3s0.2,0.1,0.3,0.1l11.2,0c0.2,0,0.4-0.2,0.4-0.4c0-1.9,1.9-5.1,3.6-7.9
		c0.3-0.6,0.7-1.1,1-1.6c1.3-2.1,0.3-4.9-0.5-6.2C51.7,132.1,48.2,124.2,46.4,119.2z"/>
	<path class="st0" d="M50.3,155.1H39.7c-0.6,0-1.1,0.5-1.1,1.1c0,0.6,0,1.6,0,2.2c0,0.6,0.5,1.1,1.1,1.1h10.7c0.6,0,1.1-0.5,1.1-1.1
		c0-0.6,0-1.6,0-2.2C51.4,155.6,50.9,155.1,50.3,155.1z"/>
	<path class="st1" d="M69.9,115.6v-5.1h-5.1v1.5H25.1v-1.5h-5.1v5.1h5.1v-1.5h10.6c-10.5,4.5-13.4,16-14,19.3h-1.7v5.1h5.1v-5.1
		h-1.4c0.4-1.8,1.3-5.5,3.5-9.1c3.9-6.6,9.9-10,17.7-10s13.8,3.4,17.7,10c2.2,3.6,3.1,7.3,3.5,9.1h-1.4v5.1h5.1v-5.1h-1.7
		c-0.6-3.3-3.5-14.8-14-19.3h10.6v1.5H69.9z"/>
</g>
<path class="st1" d="M88,92v86H2V92H88 M90,90H0v90h90V90L90,90z"/>
<g>
	<rect class="st1" width="90" height="90"/>
	<g>
		<path class="st2" d="M46.4,29.2c-0.1-0.2-0.2-0.3-0.4-0.2c-0.2,0-0.3,0.2-0.3,0.4V47c0,0.2,0.1,0.3,0.2,0.4
			c1.1,0.4,1.8,1.4,1.8,2.6c0,1.5-1.2,2.8-2.8,2.8s-2.8-1.2-2.8-2.8c0-1.2,0.7-2.2,1.9-2.6c0.2-0.1,0.3-0.2,0.3-0.4V29.3
			c0-0.2-0.1-0.3-0.3-0.4c-0.2,0-0.4,0.1-0.4,0.2c-1.8,5-5.3,12.3-8.7,18.6c-1.3,2.4-1.5,4.5-0.5,6.2c0.3,0.5,0.6,1.1,1,1.6
			c1.7,2.8,3.6,6,3.6,7.9c0,0.1,0,0.2,0.1,0.3s0.2,0.1,0.3,0.1l11.2,0c0.2,0,0.4-0.2,0.4-0.4c0-1.9,1.9-5.1,3.6-7.9
			c0.3-0.6,0.7-1.1,1-1.6c1.3-2.1,0.3-4.9-0.5-6.2C51.7,42.1,48.2,34.1,46.4,29.2z"/>
		<path class="st2" d="M50.3,65.1H39.7c-0.6,0-1.1,0.5-1.1,1.1c0,0.6,0,1.6,0,2.2c0,0.6,0.5,1.1,1.1,1.1h10.7c0.6,0,1.1-0.5,1.1-1.1
			c0-0.6,0-1.6,0-2.2C51.4,65.6,50.9,65.1,50.3,65.1z"/>
		<path class="st2" d="M69.9,25.6v-5.1h-5.1V22H25.1v-1.5h-5.1v5.1h5.1V24h10.6c-10.5,4.5-13.4,16-14,19.3h-1.7v5.1h5.1v-5.1h-1.4
			c0.4-1.8,1.3-5.5,3.5-9.1c3.9-6.6,9.9-10,17.7-10s13.8,3.4,17.7,10c2.2,3.6,3.1,7.3,3.5,9.1h-1.4v5.1h5.1v-5.1h-1.7
			c-0.6-3.3-3.5-14.8-14-19.3h10.6v1.5H69.9z"/>
	</g>
</g>
</svg>
