<?xml version="1.0" encoding="utf-8"?>
<!-- Generator: Adobe Illustrator 21.0.1, SVG Export Plug-In . SVG Version: 6.00 Build 0)  -->
<svg version="1.1" id="Layer_1" xmlns="http://www.w3.org/2000/svg" xmlns:xlink="http://www.w3.org/1999/xlink" x="0px" y="0px"
	 viewBox="0 0 90 180" style="enable-background:new 0 0 90 180;" xml:space="preserve">
<style type="text/css">
	.st0{fill:#A99060;}
	.st1{fill:#FFFFFF;}
	.st2{fill:#333333;}
</style>
<g>
	<path class="st0" d="M90,0H0v90h90V0L90,0z"/>
	<g>
		<g>
			<path class="st1" d="M55.4,34.5H34.8l-9.8,11l20,24.7l20-24.6L55.4,34.5z M53.9,37.7l5.6,6.4H54l-6.4-6.4H53.9z M51,44.2H39l6-6
				L51,44.2z M36.2,37.7h6.2L36,44.2h-5.5L36.2,37.7z M29.7,46.3h6l6.5,15.5L29.7,46.3z M45,62.9l-7-16.5H52L45,62.9z M54.3,46.3
				h6.1L47.7,61.9L54.3,46.3z"/>
		</g>
		<path class="st1" d="M29.9,32.7L25,27.9l2.6-2.6l4.7,4.7L29.9,32.7z"/>
		<path class="st1" d="M43.1,19.7h3.7v8h-3.7V19.7z"/>
		<path class="st1" d="M57.7,29.9l4.6-4.6l2.6,2.6l-4.8,4.8L57.7,29.9z"/>
	</g>
</g>
<g>
	<path class="st0" d="M88,92v86H2V92H88 M90,90H0v90h90V90L90,90z"/>
	<g>
		<g>
			<path class="st2" d="M55.4,124.5H34.8l-9.8,11l20,24.7l20-24.6L55.4,124.5z M53.9,127.7l5.6,6.4H54l-6.4-6.4H53.9z M51,134.2H39
				l6-6L51,134.2z M36.2,127.7h6.2l-6.4,6.4h-5.5L36.2,127.7z M29.7,136.3h6l6.5,15.5L29.7,136.3z M45,152.9l-7-16.5H52L45,152.9z
				 M54.3,136.3h6.1l-12.7,15.6L54.3,136.3z"/>
		</g>
		<path class="st0" d="M29.9,122.7l-4.9-4.9l2.6-2.6l4.7,4.7L29.9,122.7z"/>
		<path class="st0" d="M43.1,109.7h3.7v8h-3.7V109.7z"/>
		<path class="st0" d="M57.7,119.9l4.6-4.6l2.6,2.6l-4.8,4.8L57.7,119.9z"/>
	</g>
</g>
</svg>
