<?xml version="1.0" encoding="utf-8"?>
<!-- Generator: Adobe Illustrator 21.0.1, SVG Export Plug-In . SVG Version: 6.00 Build 0)  -->
<svg version="1.1" id="Layer_1" xmlns="http://www.w3.org/2000/svg" xmlns:xlink="http://www.w3.org/1999/xlink" x="0px" y="0px"
	 viewBox="0 0 90 180" style="enable-background:new 0 0 90 180;" xml:space="preserve">
<style type="text/css">
	.st0{fill:#A99060;}
	.st1{fill:#FFFFFF;}
	.st2{fill:#333333;}
</style>
<g>
	<path class="st0" d="M90,0H0v90h90V0L90,0z"/>
	<g>
		<g>
			<path class="st1" d="M66.6,23.5H23.4c-1.6,0-2.9,1.3-2.9,2.9v29.8c0,1.6,1.3,2.9,2.9,2.9h16.4c-0.1,1.1-0.5,2.9-1.3,4.6h-2.3v1.3
				c0,0.9,0.7,1.6,1.6,1.6h14.6c0.9,0,1.6-0.7,1.6-1.6v-1.3h-2.3c-0.8-1.7-1.2-3.5-1.3-4.6h16.4c1.6,0,2.9-1.3,2.9-2.9V26.4
				C69.5,24.8,68.2,23.5,66.6,23.5z M24.5,27.9c0-0.2,0.2-0.4,0.4-0.4h40.2c0.2,0,0.4,0.2,0.4,0.4v20.8c0,0.2-0.2,0.4-0.4,0.4H24.9
				c-0.2,0-0.4-0.2-0.4-0.4V27.9z M40.3,63.7c0.8-2,1.1-3.8,1.2-4.6h6.9c0.1,0.8,0.4,2.6,1.2,4.6H40.3z M67.4,52.7v3.4
				c0,0.4-0.4,0.8-0.8,0.8H23.4c-0.4,0-0.8-0.4-0.8-0.8v-3.4H67.4z"/>
		</g>
		<path class="st1" d="M48.9,31c-1.7,0-3.2,1.4-3.9,2.9c-0.7-1.5-2.2-2.9-3.9-2.9c-2.4,0-4.3,1.9-4.3,4.3c0,4.9,4.9,6.1,8.2,10.9
			c3.2-4.8,8.2-6.2,8.2-10.9C53.2,32.9,51.3,31,48.9,31z"/>
	</g>
</g>
<g>
	<path class="st0" d="M88,92v86H2V92H88 M90,90H0v90h90V90L90,90z"/>
	<g>
		<g>
			<path class="st2" d="M66.6,113.5H23.4c-1.6,0-2.9,1.3-2.9,2.9v29.8c0,1.6,1.3,2.9,2.9,2.9h16.4c-0.1,1.1-0.5,2.9-1.3,4.6h-2.3
				v1.3c0,0.9,0.7,1.6,1.6,1.6h14.6c0.9,0,1.6-0.7,1.6-1.6v-1.3h-2.3c-0.8-1.7-1.2-3.5-1.3-4.6h16.4c1.6,0,2.9-1.3,2.9-2.9v-29.8
				C69.5,114.8,68.2,113.5,66.6,113.5z M24.5,117.9c0-0.2,0.2-0.4,0.4-0.4h40.2c0.2,0,0.4,0.2,0.4,0.4v20.8c0,0.2-0.2,0.4-0.4,0.4
				H24.9c-0.2,0-0.4-0.2-0.4-0.4V117.9z M40.3,153.7c0.8-2,1.1-3.8,1.2-4.6h6.9c0.1,0.8,0.4,2.6,1.2,4.6H40.3z M67.4,142.7v3.4
				c0,0.4-0.4,0.8-0.8,0.8H23.4c-0.4,0-0.8-0.4-0.8-0.8v-3.4H67.4z"/>
		</g>
		<path class="st0" d="M48.9,121c-1.7,0-3.2,1.4-3.9,2.9c-0.7-1.5-2.2-2.9-3.9-2.9c-2.4,0-4.3,1.9-4.3,4.3c0,4.9,4.9,6.1,8.2,10.9
			c3.2-4.8,8.2-6.2,8.2-10.9C53.2,122.9,51.3,121,48.9,121z"/>
	</g>
</g>
</svg>
