<svg xmlns="http://www.w3.org/2000/svg" viewBox="0 0 23.38 19"><defs><style>.a{fill:#a99160;}</style></defs><path class="a" d="M23.38,4.5a9.577,9.577,0,0,1-2.755.755A4.8,4.8,0,0,0,22.734,2.6a9.609,9.609,0,0,1-3.046,1.164,4.8,4.8,0,0,0-8.174,4.374A13.617,13.617,0,0,1,1.628,3.126a4.8,4.8,0,0,0,1.484,6.4A4.776,4.776,0,0,1,.94,8.93a4.8,4.8,0,0,0,3.847,4.764,4.808,4.808,0,0,1-2.167.082A4.8,4.8,0,0,0,7.1,17.106,9.644,9.644,0,0,1,0,19.093a13.579,13.579,0,0,0,7.353,2.155A13.565,13.565,0,0,0,20.986,6.98,9.766,9.766,0,0,0,23.38,4.5Z" transform="translate(0 -2.248)"/></svg>