<?xml version="1.0" standalone="no"?>
<!DOCTYPE svg PUBLIC "-//W3C//DTD SVG 20010904//EN"
 "http://www.w3.org/TR/2001/REC-SVG-20010904/DTD/svg10.dtd">
<svg version="1.0" xmlns="http://www.w3.org/2000/svg"
 width="260.000000pt" height="260.000000pt" viewBox="0 0 260.000000 260.000000"
 preserveAspectRatio="xMidYMid meet">
<metadata>
Created by potrace 1.11, written by Peter Selinger 2001-2013
</metadata>
<g transform="translate(0.000000,260.000000) scale(0.100000,-0.100000)"
fill="#000000" stroke="none">
<path d="M1169 2596 c-2 -2 -24 -6 -49 -10 -93 -12 -117 -18 -210 -47 -478
-152 -825 -560 -897 -1054 -15 -101 -9 -342 11 -435 20 -92 28 -127 36 -145 4
-11 23 -57 40 -103 151 -387 516 -687 950 -779 130 -27 382 -24 518 6 101 22
233 68 320 111 233 115 453 337 570 574 106 215 142 376 137 611 -3 151 -5
164 -30 270 -21 87 -20 86 -29 110 -5 11 -13 34 -18 50 -27 76 -114 238 -166
307 -216 289 -503 464 -857 525 -35 6 -321 14 -326 9z"/>
</g>
</svg>
