<?xml version="1.0" encoding="utf-8"?>
<!-- Generator: Adobe Illustrator 23.0.1, SVG Export Plug-In . SVG Version: 6.00 Build 0)  -->
<svg version="1.1" id="Layer_1" xmlns="http://www.w3.org/2000/svg" xmlns:xlink="http://www.w3.org/1999/xlink" x="0px" y="0px"
	 width="78px" height="116px" viewBox="0 0 78 116" style="enable-background:new 0 0 78 116;" xml:space="preserve">
<style type="text/css">
	.st0{fill:none;}
	.st1{fill:#00F6C5;}
	.st2{fill:#333333;}
</style>
<g>
	<g>
		<rect x="18.22" y="63.65" class="st0" width="41.55" height="7.21"/>
		<rect x="18.22" y="76.45" class="st0" width="41.55" height="7.21"/>
		<path class="st0" d="M68.58,4.21H8.53c-2.39,0-4.33,1.94-4.33,4.33v98.91c0,2.39,1.94,4.33,4.33,4.33h60.05
			c2.39,0,4.33-1.94,4.33-4.33V8.55C72.92,6.16,70.97,4.21,68.58,4.21z M38.56,6.05c0.89,0,1.61,0.72,1.61,1.61
			s-0.72,1.61-1.61,1.61c-0.89,0-1.61-0.72-1.61-1.61S37.67,6.05,38.56,6.05z M39,109.27c-1.76,0-3.19-1.43-3.19-3.19
			c0-1.76,1.43-3.19,3.19-3.19c1.76,0,3.19,1.43,3.19,3.19C42.19,107.84,40.76,109.27,39,109.27z M70.59,97.81
			c0,1.43-1.17,2.6-2.6,2.6H9.12c-1.43,0-2.6-1.17-2.6-2.6V16.43c0-1.43,1.17-2.6,2.6-2.6h58.87c1.43,0,2.6,1.17,2.6,2.6V97.81z"/>
		<path class="st1" d="M39,55.91c5.1-7.71,13.31-10.07,13.31-17.67c0-3.86-3.13-6.99-6.99-6.99c-2.8,0-5.21,2.28-6.32,4.65
			c-1.12-2.38-3.53-4.65-6.32-4.65c-3.86,0-6.99,3.13-6.99,6.99C25.69,46.1,33.61,48.15,39,55.91z"/>
		<path class="st2" d="M67.99,13.83H9.12c-1.43,0-2.6,1.17-2.6,2.6v81.38c0,1.43,1.17,2.6,2.6,2.6h58.87c1.43,0,2.6-1.17,2.6-2.6
			V16.43C70.59,15,69.42,13.83,67.99,13.83z M32.68,31.26c2.8,0,5.21,2.28,6.32,4.65c1.11-2.38,3.52-4.65,6.32-4.65
			c3.86,0,6.99,3.13,6.99,6.99c0,7.6-8.21,9.95-13.31,17.67c-5.39-7.76-13.31-9.82-13.31-17.67C25.69,34.39,28.82,31.26,32.68,31.26
			z M59.78,83.66H18.22v-7.21h41.55V83.66z M59.78,70.86H18.22v-7.21h41.55V70.86z"/>
		<path class="st2" d="M39,102.88c-1.76,0-3.19,1.43-3.19,3.19c0,1.76,1.43,3.19,3.19,3.19c1.76,0,3.19-1.43,3.19-3.19
			C42.19,104.31,40.76,102.88,39,102.88z"/>
		<path class="st2" d="M38.56,9.27c0.89,0,1.61-0.72,1.61-1.61s-0.72-1.61-1.61-1.61c-0.89,0-1.61,0.72-1.61,1.61
			S37.67,9.27,38.56,9.27z"/>
		<path class="st2" d="M77.5,18.26v-1.77c0-0.67-0.35-1.25-0.88-1.58V8.55c0-4.43-3.6-8.03-8.03-8.03H8.53
			c-4.43,0-8.03,3.6-8.03,8.03v98.91c0,4.43,3.6,8.03,8.03,8.03h60.05c4.43,0,8.03-3.6,8.03-8.03V33.97
			c0.53-0.33,0.88-0.91,0.88-1.58v-8.83c0-0.67-0.35-1.25-0.88-1.58v-2.15C77.15,19.51,77.5,18.93,77.5,18.26z M72.92,107.45
			c0,2.39-1.94,4.33-4.33,4.33H8.53c-2.39,0-4.33-1.94-4.33-4.33V8.55c0-2.39,1.94-4.33,4.33-4.33h60.05c2.39,0,4.33,1.94,4.33,4.33
			V107.45z"/>
	</g>
</g>
</svg>
