<?xml version="1.0" encoding="utf-8"?>
<!-- Generator: Adobe Illustrator 23.0.1, SVG Export Plug-In . SVG Version: 6.00 Build 0)  -->
<svg version="1.1" id="Layer_1" xmlns="http://www.w3.org/2000/svg" xmlns:xlink="http://www.w3.org/1999/xlink" x="0px" y="0px"
	 width="111px" height="109px" viewBox="0 0 111 109" style="enable-background:new 0 0 111 109;" xml:space="preserve">
<style type="text/css">
	.st0{fill:#333333;}
	.st1{fill:#A99060;}
</style>
<g>
	<g>
		<path class="st0" d="M58.62,19.6c-0.14-0.38-0.52-0.6-0.92-0.53c-0.4,0.07-0.68,0.41-0.68,0.81v39.1c0,0.35,0.22,0.66,0.54,0.78
			c2.4,0.87,4.01,3.15,4.01,5.68c0,3.34-2.72,6.07-6.07,6.07c-3.34,0-6.07-2.72-6.07-6.07c0-2.57,1.65-4.86,4.1-5.71
			c0.33-0.12,0.56-0.43,0.56-0.78v-39.1c0-0.4-0.29-0.74-0.68-0.81c-0.4-0.07-0.78,0.15-0.92,0.53
			C48.45,30.54,40.9,46.63,33.27,60.58c-2.96,5.4-3.31,9.85-1.09,13.61c0.69,1.17,1.43,2.37,2.17,3.59
			c3.75,6.17,8.01,13.17,8.01,17.34c0,0.22,0.09,0.43,0.24,0.58s0.37,0.24,0.58,0.24l24.73,0c0.46,0,0.83-0.37,0.83-0.83
			c0-4.17,4.25-11.16,8-17.33c0.75-1.23,1.48-2.44,2.18-3.61c2.78-4.68,0.61-10.77-1.1-13.63C70.31,48.06,62.6,30.56,58.62,19.6z"/>
		<path class="st0" d="M67.27,98.81H43.74c-1.35,0-2.44,1.09-2.44,2.44c0,1.35,0,3.53,0,4.88c0,1.35,1.09,2.44,2.44,2.44h23.53
			c1.35,0,2.44-1.09,2.44-2.44c0-1.35,0-3.54,0-4.88C69.71,99.91,68.62,98.81,67.27,98.81z"/>
		<path class="st1" d="M110.5,11.63V0.42H99.29v3.4H11.71v-3.4H0.5v11.21h11.21v-3.4h23.41C12.04,18.08,5.61,43.59,4.24,50.8H0.5
			v11.21h11.21V50.8H8.73c0.79-3.94,2.86-12.04,7.63-20.04C25.05,16.13,38.23,8.71,55.5,8.71s30.45,7.42,39.15,22.04
			c4.76,8.01,6.84,16.1,7.63,20.04h-2.99v11.21h11.21V50.8h-3.74c-1.37-7.21-7.79-32.72-30.88-42.57h23.41v3.4H110.5z"/>
	</g>
</g>
</svg>
