<?xml version="1.0" encoding="utf-8"?>
<!-- Generator: Adobe Illustrator 23.0.1, SVG Export Plug-In . SVG Version: 6.00 Build 0)  -->
<svg version="1.1" id="Layer_1" xmlns="http://www.w3.org/2000/svg" xmlns:xlink="http://www.w3.org/1999/xlink" x="0px" y="0px"
	 width="159px" height="116px" viewBox="0 0 159 116" style="enable-background:new 0 0 159 116;" xml:space="preserve">
<style type="text/css">
	.st0{fill:#A99060;}
	.st1{fill:#333333;}
</style>
<g>
	<g>
		<path class="st0" d="M92.43,38.04c-1.46-5.74-6.08-8.97-12.39-8.66c-6.52,0.41-11.87,5.28-12.89,11.73
			c-0.85,4.41,0.44,8.97,3.48,12.28c1.48,1.59,3.29,2.85,5.29,3.71c0.88,0.38,1.9-0.02,2.28-0.9c0.38-0.88-0.02-1.9-0.9-2.28
			c-4.88-1.95-7.7-7.06-6.74-12.23c0.71-4.88,4.75-8.58,9.67-8.87c2.17-0.11,7.36,0.28,8.84,6.05c0.99,3.89-0.37,8.25-2.98,9.5
			c-1.94,1.12-4.27,1.34-6.38,0.6c-1.51-0.67-2.73-1.87-3.43-3.36c-0.01-0.01-0.01-0.02-0.02-0.03c-1.28-2.22-0.52-5.05,1.69-6.33
			c1.34-0.64,2.88-0.7,4.26-0.17c0.82,0.46,1.36,1.3,1.44,2.23c0.25,0.75,0,1.58-0.62,2.07c-0.44,0.3-0.99,0.38-1.5,0.24
			c-0.03-0.03-0.04-0.06-0.05-0.06c0.04-0.08,0.09-0.15,0.16-0.21c0.68-0.6,0.78-1.63,0.23-2.35c-0.58-0.76-1.67-0.9-2.43-0.32
			c-0.78,0.64-1.29,1.56-1.42,2.57c-0.09,0.97,0.23,1.93,0.88,2.66c1.43,1.39,3.59,1.7,5.36,0.78c2.24-1.05,3.41-3.54,2.81-5.93
			c-0.25-2.02-1.47-3.78-3.27-4.72c-2.36-1.03-5.05-0.98-7.36,0.14c-0.03,0.01-0.05,0.03-0.08,0.04c-3.9,2.14-5.33,7.04-3.19,10.94
			c1.06,2.27,2.92,4.07,5.22,5.05c3.02,1.14,6.39,0.89,9.22-0.69C91.73,49.52,93.85,43.6,92.43,38.04z"/>
		<path class="st1" d="M145.07,76.72c-14.53-3.36-28.07-6.3-21.51-18.67c19.94-37.66,5.28-57.8-15.77-57.8
			c-10.18,0-18.73,4.7-22.8,13.57c2.48,0.35,4.92,1,7.25,1.92c0.08-0.14,0.12-0.31,0.2-0.44c2.97-5,8.43-7.75,15.35-7.75
			c3.97,0,11.24,0.99,15.22,7.6c5.07,8.43,2.92,22.81-5.9,39.48c-2.91,5.5-3.34,10.58-1.28,15.1c3.95,8.64,15.16,11.23,27.04,13.97
			l0.56,0.13c6.91,1.6,7.68,2.82,7.76,10.53v7.3h7.29l0.02-5.24C158.5,85.77,157.66,79.63,145.07,76.72z"/>
		<path class="st1" d="M43.25,69.67c2.05-4.54,1.58-9.63-1.39-15.1c-8.9-16.41-11.09-30.73-6-39.27c2.97-5,8.43-7.75,15.35-7.75
			c3.97,0,11.24,0.99,15.22,7.6c0.17,0.28,0.26,0.61,0.41,0.9c2.29-0.98,4.7-1.69,7.16-2.1C69.97,4.93,61.34,0.25,51.21,0.25
			c-21.48,0-35.77,20.91-15.77,57.8c6.75,12.44-7.29,15.39-21.51,18.67C1.34,79.63,0.5,85.77,0.5,96.42l0.02,5.24h7.29v-7.3
			c0.08-7.71,0.85-8.93,7.76-10.53l0.88-0.2C28.22,80.92,39.34,78.36,43.25,69.67z"/>
		<path class="st1" d="M122.22,94.78c-0.46-0.28-0.93-0.54-1.42-0.78c-1.79-0.83-3.67-1.46-5.6-1.88
			c-4.67-0.95-9.26-2.21-13.76-3.77c-2.46-0.81-4.69-2.18-6.52-4.01c-0.34-0.39-0.64-0.81-0.89-1.25c-0.5-0.9-0.78-1.91-0.81-2.94
			c-0.01-0.63,0.05-1.26,0.18-1.88c0.11-0.59,0.28-1.17,0.48-1.73c0.03-0.07,0.07-0.15,0.1-0.23c0.24-0.64,0.52-1.27,0.84-1.88
			c2.35-4.38,4.33-8.93,5.94-13.63c0.82-2.41,1.5-4.87,2.03-7.36c0.35-1.69,0.61-3.39,0.78-5.1c0.61-4.94,0.04-9.96-1.66-14.64
			c-0.85-2.21-2.05-4.26-3.56-6.08c-2.19-2.61-4.99-4.65-8.14-5.95c-0.5-0.21-1.01-0.4-1.53-0.58c-1.1-0.37-2.23-0.67-3.38-0.89
			c-0.09-0.02-0.12-0.03-0.07-0.02c-0.59-0.11-1.2-0.2-1.81-0.27c0.04,0.01-0.08-0.01-0.36-0.04c-1.14-0.13-2.29-0.18-3.44-0.18
			c-0.59,0.01-1.18,0.02-1.77,0.06c0,0-1.26,0.11-2.02,0.22c-1.08,0.15-2.16,0.36-3.21,0.64c-1.33,0.36-2.62,0.83-3.87,1.41
			c-2.39,1.09-4.56,2.62-6.4,4.5c-0.03,0.03-0.05,0.06-0.08,0.09l0.08-0.1c-0.8,0.83-1.53,1.72-2.18,2.67l0.04-0.04
			c-0.01,0.02-0.02,0.03-0.04,0.05c-0.67,0.98-1.27,2.01-1.77,3.08c0,0.01-0.01,0.01-0.01,0.02l0.01-0.02
			C57.61,34,57,35.81,56.6,37.67l0-0.01c0,0.01,0,0.01,0,0.02c-1.03,5.32-0.92,10.8,0.32,16.07c0.37,1.76,0.85,3.57,1.44,5.45
			c0.05,0.17,0.12,0.35,0.17,0.52c0.55,1.72,1.19,3.49,1.93,5.31c1.32,3.22,2.82,6.37,4.49,9.42c0.36,0.67,0.67,1.37,0.92,2.08
			c0.06,0.15,0.13,0.31,0.17,0.46c0.01,0.04,0.02,0.07,0.03,0.11c0.1,0.29,0.18,0.58,0.25,0.87c0.31,1.2,0.31,2.46,0.02,3.66
			c-0.11,0.46-0.28,0.91-0.49,1.34c-0.86,1.5-2.12,2.74-3.63,3.58c-1.5,0.87-3.07,1.58-4.71,2.14c-1.01,0.36-2.05,0.71-3.16,1.03
			c-2.28,0.66-4.74,1.25-7.25,1.84l-2.52,0.58c-1.93,0.41-3.81,1.04-5.6,1.88c-6.59,3.21-7.12,8.59-7.12,16.78l0.01,4.97h96.01
			l0.02-4.97C127.92,103.22,127.47,98.05,122.22,94.78z M87.6,51.52c-2.82,1.58-6.19,1.83-9.22,0.69c-2.3-0.99-4.16-2.78-5.22-5.05
			c-2.14-3.9-0.72-8.8,3.19-10.94c0.03-0.01,0.05-0.03,0.08-0.04c2.32-1.12,5.01-1.17,7.36-0.14c1.8,0.94,3.02,2.71,3.27,4.72
			c0.6,2.4-0.57,4.88-2.81,5.93c-1.77,0.93-3.93,0.61-5.36-0.78c-0.65-0.73-0.97-1.69-0.88-2.66c0.13-1.01,0.64-1.92,1.42-2.57
			c0.76-0.58,1.85-0.44,2.43,0.32c0.55,0.72,0.45,1.75-0.23,2.35c-0.07,0.06-0.12,0.13-0.16,0.21c0.01,0,0.02,0.03,0.05,0.06
			c0.51,0.15,1.06,0.06,1.5-0.24c0.62-0.49,0.87-1.32,0.62-2.07c-0.08-0.94-0.61-1.78-1.44-2.23c-1.38-0.53-2.93-0.47-4.26,0.17
			c-2.22,1.28-2.97,4.12-1.69,6.33c0.01,0.01,0.01,0.02,0.02,0.03c0.7,1.5,1.92,2.69,3.43,3.36c2.11,0.74,4.44,0.52,6.38-0.6
			c2.61-1.26,3.97-5.61,2.98-9.5c-1.47-5.77-6.67-6.16-8.84-6.05c-4.92,0.29-8.96,3.99-9.67,8.87c-0.96,5.16,1.87,10.28,6.74,12.23
			c0.88,0.38,1.28,1.4,0.9,2.28c-0.38,0.88-1.4,1.28-2.28,0.9c-2-0.86-3.8-2.12-5.29-3.71c-3.04-3.31-4.33-7.87-3.48-12.28
			c1.01-6.45,6.37-11.33,12.89-11.73c6.31-0.31,10.93,2.93,12.39,8.66C93.85,43.6,91.73,49.52,87.6,51.52z"/>
		<path class="st1" d="M79.64,19.71C79.64,19.71,79.64,19.71,79.64,19.71c0.09,0,0.17-0.01,0.26-0.01L79.64,19.71z"/>
	</g>
</g>
</svg>
