<?xml version="1.0" encoding="utf-8"?>
<!-- Generator: Adobe Illustrator 23.0.1, SVG Export Plug-In . SVG Version: 6.00 Build 0)  -->
<svg version="1.1" id="Layer_1" xmlns="http://www.w3.org/2000/svg" xmlns:xlink="http://www.w3.org/1999/xlink" x="0px" y="0px"
	 width="113px" height="106px" viewBox="0 0 113 106" style="enable-background:new 0 0 113 106;" xml:space="preserve">
<style type="text/css">
	.st0{fill:#333333;}
	.st1{fill:#A99060;}
</style>
<g>
	<path class="st0" d="M102.08,33.15v32.4c0,0.55-0.45,0.99-0.99,0.99h-90.5c-0.55,0-0.99-0.45-0.99-0.99V18.62
		c0-0.55,0.45-0.99,0.99-0.99h70.73c0.81-1.05,1.8-2.14,3.06-3.32c1.41-1.31,3.63-3.32,6.18-5.58H7.24c-3.61,0-6.55,2.94-6.55,6.55
		V82.3c0,3.61,2.94,6.55,6.55,6.55h36.9c-0.31,2.44-1.19,6.49-3.04,10.37h-5.21v2.82c0,1.97,1.6,3.57,3.57,3.57h32.77
		c1.97,0,3.57-1.6,3.57-3.57v-2.82h-5.21c-1.85-3.88-2.73-7.92-3.04-10.37h36.9c3.61,0,6.55-2.94,6.55-6.55V18.97
		c-2.8,4.68-5.52,9.18-7.07,11.6C103.29,31.56,102.68,32.39,102.08,33.15z M45.35,99.22c1.84-4.44,2.48-8.53,2.68-10.37h15.62
		c0.21,1.84,0.84,5.93,2.68,10.37H45.35z M106.27,82.3c0,1.01-0.82,1.83-1.83,1.83H7.24c-1.01,0-1.83-0.82-1.83-1.83v-7.7h100.87
		V82.3z"/>
	<path class="st1" d="M110.97,0.53c-0.36,0-0.73,0.12-1.07,0.41c0,0-17.24,14.99-22.32,19.74c-4.02,3.76-4.03,5.47-5.34,11.66
		l4.41,3.67c5.84-2.4,7.52-2.73,10.47-7.37c3.74-5.87,15.34-25.57,15.34-25.57C113.16,1.82,112.13,0.53,110.97,0.53z"/>
	<path class="st1" d="M79.39,34.58C67.87,34.7,71.73,47.44,60.5,47.44c-0.44,0-0.9-0.02-1.38-0.06c2.96,4.12,7.64,6.12,12.18,6.12
		c7.2,0,14.07-5.01,13.28-14.59L79.39,34.58z"/>
	<rect x="19.33" y="46.08" class="st1" width="34.19" height="6.23"/>
</g>
</svg>
