<?xml version="1.0" encoding="utf-8"?>
<!-- Generator: Adobe Illustrator 23.0.1, SVG Export Plug-In . SVG Version: 6.00 Build 0)  -->
<svg version="1.1" id="Layer_1" xmlns="http://www.w3.org/2000/svg" xmlns:xlink="http://www.w3.org/1999/xlink" x="0px" y="0px"
	 width="113px" height="103px" viewBox="0 0 113 103" style="enable-background:new 0 0 113 103;" xml:space="preserve">
<style type="text/css">
	.st0{fill:#333333;}
	.st1{fill:#A99060;}
</style>
<g>
	<g>
		<g>
			<path class="st0" d="M112.5,45.52v11.96c-7.95,0-15.27,6.68-15.27,14.54c0,11.1,6.52,30.38-30.55,30.38V92.22
				c25.03,0,20.19-8.15,20.19-20.2c0-10.66,6.17-17.82,11.6-20.52c-5.43-2.7-11.6-7.32-11.6-16.86c0-12.08,4.79-23.89-20.19-23.86
				V0.59c37.09,0,30.55,22.94,30.55,34.05C97.23,42.5,104.55,45.52,112.5,45.52z"/>
			<path class="st0" d="M15.77,34.64c0-11.11-6.54-34.05,30.55-34.05v10.19c-24.98-0.04-20.19,11.78-20.19,23.86
				c0,9.55-6.17,14.16-11.6,16.86c5.43,2.7,11.6,9.87,11.6,20.52c0,12.05-4.84,20.2,20.19,20.2v10.19
				c-37.07,0-30.55-19.28-30.55-30.39c0-7.87-7.32-14.54-15.27-14.54V45.52C8.45,45.52,15.77,42.5,15.77,34.64z"/>
		</g>
		<g>
			<path class="st1" d="M61.59,61.68v6.51c0,5.82-3.68,10.53-9.03,11.59l-1.01-2.19c2.48-0.94,4.06-3.94,4.06-6.19h-4.19v-9.71
				H61.59z"/>
			<rect x="51.41" y="31.14" class="st1" width="10.18" height="10.18"/>
		</g>
	</g>
</g>
</svg>
