<?xml version="1.0" encoding="utf-8"?>
<!-- Generator: Adobe Illustrator 21.0.1, SVG Export Plug-In . SVG Version: 6.00 Build 0)  -->
<svg version="1.1" id="Layer_1" xmlns="http://www.w3.org/2000/svg" xmlns:xlink="http://www.w3.org/1999/xlink" x="0px" y="0px"
	 viewBox="0 0 90 180" style="enable-background:new 0 0 90 180;" xml:space="preserve">
<style type="text/css">
	.st0{fill:#A99060;}
	.st1{fill:#333333;}
	.st2{fill:#FFFFFF;}
</style>
<g>
	<path class="st0" d="M88,92v86H2V92H88 M90,90H0v90h90V90L90,90z"/>
	<g>
		<g>
			<path class="st1" d="M61.8,117.7v-0.8c0-0.3-0.2-0.5-0.4-0.7v-2.8c0-1.9-1.6-3.5-3.5-3.5H31.7c-1.9,0-3.5,1.6-3.5,3.5v43
				c0,1.9,1.6,3.5,3.5,3.5h26.1c1.9,0,3.5-1.6,3.5-3.5v-32c0.2-0.1,0.4-0.4,0.4-0.7V120c0-0.3-0.2-0.5-0.4-0.7v-0.9
				C61.6,118.3,61.8,118,61.8,117.7z M44.8,112.4c0.4,0,0.7,0.3,0.7,0.7c0,0.4-0.3,0.7-0.7,0.7c-0.4,0-0.7-0.3-0.7-0.7
				C44.1,112.7,44.4,112.4,44.8,112.4z M44.8,158.2c-0.8,0-1.4-0.6-1.4-1.4c0-0.8,0.6-1.4,1.4-1.4c0.8,0,1.4,0.6,1.4,1.4
				C46.2,157.6,45.6,158.2,44.8,158.2z M59.2,152.9c0,0.6-0.5,1.2-1.2,1.2H31.6c-0.6,0-1.2-0.5-1.2-1.2v-36.6c0-0.6,0.5-1.2,1.2-1.2
				h26.5c0.6,0,1.2,0.5,1.2,1.2V152.9z"/>
		</g>
		<path class="st0" d="M47.9,122.5c-1.3,0-2.4,1-2.9,2.1c-0.5-1.1-1.6-2.1-2.9-2.1c-1.8,0-3.2,1.4-3.2,3.2c0,3.6,3.6,4.6,6.1,8.1
			c2.3-3.5,6.1-4.6,6.1-8.1C51.1,124,49.7,122.5,47.9,122.5z"/>
		<rect x="35.4" y="137.4" class="st1" width="19.1" height="3.3"/>
		<rect x="35.4" y="143.3" class="st1" width="19.1" height="3.3"/>
	</g>
</g>
<g>
	<path class="st0" d="M90,0H0v90h90V0L90,0z"/>
	<g>
		<g>
			<path class="st2" d="M61.8,27.7v-0.8c0-0.3-0.2-0.5-0.4-0.7v-2.8c0-1.9-1.6-3.5-3.5-3.5H31.7c-1.9,0-3.5,1.6-3.5,3.5v43
				c0,1.9,1.6,3.5,3.5,3.5h26.1c1.9,0,3.5-1.6,3.5-3.5v-32c0.2-0.1,0.4-0.4,0.4-0.7V30c0-0.3-0.2-0.5-0.4-0.7v-0.9
				C61.6,28.3,61.8,28,61.8,27.7z M44.8,22.4c0.4,0,0.7,0.3,0.7,0.7c0,0.4-0.3,0.7-0.7,0.7c-0.4,0-0.7-0.3-0.7-0.7
				C44.1,22.7,44.4,22.4,44.8,22.4z M44.8,68.2c-0.8,0-1.4-0.6-1.4-1.4c0-0.8,0.6-1.4,1.4-1.4c0.8,0,1.4,0.6,1.4,1.4
				C46.2,67.6,45.6,68.2,44.8,68.2z M59.2,62.9c0,0.6-0.5,1.2-1.2,1.2H31.6c-0.6,0-1.2-0.5-1.2-1.2V26.3c0-0.6,0.5-1.2,1.2-1.2h26.5
				c0.6,0,1.2,0.5,1.2,1.2V62.9z"/>
		</g>
		<path class="st2" d="M47.9,32.5c-1.3,0-2.4,1-2.9,2.1c-0.5-1.1-1.6-2.1-2.9-2.1c-1.8,0-3.2,1.4-3.2,3.2c0,3.6,3.6,4.6,6.1,8.1
			c2.3-3.5,6.1-4.6,6.1-8.1C51.1,34,49.7,32.5,47.9,32.5z"/>
		<rect x="35.4" y="47.4" class="st2" width="19.1" height="3.3"/>
		<rect x="35.4" y="53.3" class="st2" width="19.1" height="3.3"/>
	</g>
</g>
</svg>
