<svg xmlns="http://www.w3.org/2000/svg" width="36" height="36" viewBox="0 0 36 36"><defs><style>.cls-1{fill:#3a3a3a;}</style></defs><title>ic_instagram_box</title><g id="Layer_2" data-name="Layer 2"><g id="HEADER"><g id="ic_instagram_box"><g id="text"><g id="TEXT_box_Image" data-name="TEXT box Image"><path class="cls-1" d="M17.988,21.611a3.53,3.53,0,1,0-1.455-6.745,3.588,3.588,0,0,0-.868.562,3.527,3.527,0,0,0,2.323,6.183ZM18,15.473a2.609,2.609,0,1,1-2.609,2.609h0A2.609,2.609,0,0,1,18,15.473Zm3.917.277H27v7.708A3.542,3.542,0,0,1,23.458,27H12.589A3.583,3.583,0,0,1,9,23.458V15.75h5.06a4.582,4.582,0,1,0,7.857,0ZM23.458,9H14.25v3.75H13.5V9h-.75v3.75H12V9.058a3.674,3.674,0,0,0-.75.2V12.75H10.5V9.673A3.52,3.52,0,0,0,9,12.541V15h5.605a4.565,4.565,0,0,1,6.448-.318q.167.151.318.318H27V12.542A3.542,3.542,0,0,0,23.458,9ZM25.5,12.949a.554.554,0,0,1-.559.551H23.058a.555.555,0,0,1-.558-.551v-1.9a.555.555,0,0,1,.558-.551h1.883a.554.554,0,0,1,.559.551h0Z"/></g></g><path class="cls-1" d="M36,36H0V0H36ZM1,35H35V1H1Z"/></g></g></g></svg>