<?xml version="1.0" encoding="utf-8"?>
<!-- Generator: Adobe Illustrator 15.1.0, SVG Export Plug-In . SVG Version: 6.00 Build 0)  -->
<!DOCTYPE svg PUBLIC "-//W3C//DTD SVG 1.1//EN" "http://www.w3.org/Graphics/SVG/1.1/DTD/svg11.dtd">
<svg version="1.1" id="Ebene_1" xmlns="http://www.w3.org/2000/svg" xmlns:xlink="http://www.w3.org/1999/xlink" x="0px" y="0px"
	 width="40px" height="40px" viewBox="-4 -4 40 40" enable-background="new -4 -4 40 40" xml:space="preserve">
<g>
	<path fill="#FFFFFF" d="M17.134,3.311c-0.049-0.137-0.188-0.219-0.335-0.194c-0.145,0.025-0.249,0.15-0.249,0.296V17.63
		c0,0.127,0.079,0.239,0.2,0.283c0.87,0.317,1.457,1.146,1.457,2.065c0,1.216-0.991,2.206-2.207,2.206
		c-1.216,0-2.205-0.99-2.205-2.206c0-0.933,0.598-1.767,1.487-2.075c0.122-0.042,0.203-0.155,0.203-0.283V3.402
		c0-0.146-0.104-0.27-0.247-0.296c-0.146-0.023-0.284,0.057-0.336,0.192c-1.468,3.987-4.211,9.841-6.987,14.912
		c-1.075,1.964-1.204,3.582-0.396,4.948c0.253,0.424,0.519,0.863,0.789,1.306c1.364,2.244,2.911,4.789,2.911,6.309
		c0,0.077,0.03,0.155,0.088,0.213c0.056,0.057,0.132,0.087,0.213,0.087h8.992c0.167,0,0.303-0.136,0.303-0.301
		c0-1.519,1.543-4.06,2.908-6.301c0.271-0.444,0.539-0.887,0.793-1.312c1.01-1.703,0.224-3.917-0.401-4.957
		C21.389,13.657,18.583,7.297,17.134,3.311z"/>
	<path fill="#FFFFFF" d="M20.279,32.114h-8.554c-0.491,0-0.889,0.396-0.889,0.888c0,0.489,0,1.283,0,1.776
		c0,0.49,0.397,0.886,0.889,0.886h8.554c0.491,0,0.888-0.396,0.888-0.886c0-0.493,0-1.287,0-1.776S20.768,32.114,20.279,32.114z"/>
	<path fill="#FFFFFF" d="M36,0.413v-4.077h-4.077v1.236H0.078v-1.236H-4v4.077h4.078v-1.237H8.59
		C0.195,2.757-2.14,12.033-2.639,14.655H-4v4.076h4.076v-4.076h-1.085c0.288-1.433,1.042-4.376,2.773-7.29
		C4.93,2.047,9.72-0.65,16-0.65c6.281,0,11.069,2.697,14.236,8.016c1.732,2.914,2.483,5.857,2.773,7.29h-1.087v4.076H36v-4.076
		h-1.359C34.14,12.033,31.803,2.757,23.412-0.824h8.511v1.237H36z"/>
</g>
</svg>
