<?xml version="1.0" encoding="utf-8"?>
<!-- Generator: Adobe Illustrator 16.0.0, SVG Export Plug-In . SVG Version: 6.00 Build 0)  -->
<!DOCTYPE svg PUBLIC "-//W3C//DTD SVG 1.1//EN" "http://www.w3.org/Graphics/SVG/1.1/DTD/svg11.dtd">
<svg version="1.1" id="Ebene_1" xmlns="http://www.w3.org/2000/svg" xmlns:xlink="http://www.w3.org/1999/xlink" x="0px" y="0px"
	 width="65px" height="65px" viewBox="0 0 65 65" enable-background="new 0 0 65 65" xml:space="preserve">
<circle fill="none" cx="32.795" cy="57.434" r="1.875"/>
<rect x="13.693" y="5.923" fill="none" width="38.004" height="47.073"/>
<circle fill="none" cx="32.451" cy="3.444" r="0.958"/>
<path fill="#333333" d="M51.613,1.2H13.775c-1.258,0-2.281,1.045-2.281,2.33V61.11c0,1.284,1.023,2.329,2.281,2.329h37.838
	c1.259,0,2.283-1.045,2.283-2.329V3.529C53.896,2.245,52.872,1.2,51.613,1.2z M32.451,2.486c0.529,0,0.957,0.429,0.957,0.958
	s-0.428,0.958-0.957,0.958s-0.959-0.429-0.959-0.958S31.922,2.486,32.451,2.486z M30.92,57.434c0-1.035,0.84-1.875,1.875-1.875
	s1.875,0.84,1.875,1.875s-0.84,1.875-1.875,1.875S30.92,58.469,30.92,57.434z M51.697,52.996H13.693V5.923h38.004V52.996z"/>
<g>
	<path fill="#A99060" d="M24.172,20.313c-1.414,1.507-1.279,3.648-1.181,5.212c0.023,0.373,0.046,0.721,0.046,1.028
		c0,2.155-2.558,2.323-3.342,2.323h-0.203v3.182h0.203c1.78,0,3.342,1.483,3.342,3.173c0,0.312-0.022,0.656-0.047,1.02
		c-0.094,1.409-0.211,3.162,0.991,4.447c1.129,1.205,3.206,1.791,6.351,1.791h0.203v-2.771h-0.203c-2.245,0-3.559-0.285-4.134-0.898
		c-0.514-0.547-0.463-1.364-0.398-2.399c0.023-0.378,0.048-0.769,0.048-1.188c0-2.257-1.192-3.959-2.472-4.758
		c1.662-0.927,2.472-2.213,2.472-3.919c0-0.401-0.022-0.802-0.045-1.193c-0.071-1.275-0.134-2.376,0.571-3.122
		c0.648-0.687,1.935-1.02,3.958-1.02l0.203,0v-2.773h-0.203C27.367,18.446,25.352,19.057,24.172,20.313z"/>
	<path fill="#A99060" d="M31.309,35.288h0.955c-0.077,0.417-0.375,0.886-0.79,1.043l-0.204,0.077l0.393,0.853l0.156-0.031
		c1.332-0.263,2.262-1.451,2.262-2.89v-1.711h-2.771V35.288z"/>
	<rect x="31.309" y="25.537" fill="#A99060" width="2.771" height="2.77"/>
	<path fill="#A99060" d="M45.695,28.876c-0.784,0-3.342-0.167-3.342-2.323c0-0.308,0.022-0.655,0.046-1.027
		c0.098-1.564,0.232-3.706-1.182-5.213c-1.181-1.256-3.194-1.867-6.159-1.867h-0.203v2.569l0.024,0.203h0.203
		c1.997,0,3.283,0.334,3.932,1.021c0.706,0.746,0.645,1.848,0.572,3.125c-0.021,0.39-0.044,0.789-0.044,1.189
		c0,1.706,0.809,2.991,2.47,3.92c-1.277,0.799-2.47,2.502-2.47,4.758c0,0.42,0.024,0.811,0.048,1.188
		c0.064,1.035,0.115,1.853-0.398,2.399c-0.575,0.611-1.889,0.896-4.134,0.896h-0.203v2.773h0.203c3.146,0,5.223-0.586,6.351-1.793
		c1.202-1.284,1.085-3.037,0.991-4.444c-0.024-0.363-0.047-0.706-0.047-1.019c0-1.691,1.562-3.174,3.342-3.174h0.203v-3.183H45.695z
		"/>
</g>
</svg>
