<?xml version="1.0" encoding="utf-8"?>
<!-- Generator: Adobe Illustrator 15.1.0, SVG Export Plug-In . SVG Version: 6.00 Build 0)  -->
<!DOCTYPE svg PUBLIC "-//W3C//DTD SVG 1.1//EN" "http://www.w3.org/Graphics/SVG/1.1/DTD/svg11.dtd">
<svg version="1.1" id="Ebene_1" xmlns="http://www.w3.org/2000/svg" xmlns:xlink="http://www.w3.org/1999/xlink" x="0px" y="0px"
	 width="40px" height="40px" viewBox="-4 -4 40 40" enable-background="new -4 -4 40 40" xml:space="preserve">
<g>
	<g>
		<path fill="#333333" d="M29.375,2.194V1.581c0-0.232-0.124-0.434-0.306-0.548V-1.18c0-1.54-1.252-2.791-2.792-2.791H5.417
			c-1.539,0-2.792,1.251-2.792,2.791v34.36c0,1.538,1.253,2.791,2.792,2.791h20.861c1.54,0,2.792-1.253,2.792-2.791V7.651
			c0.182-0.113,0.306-0.317,0.306-0.548V4.035c0-0.232-0.124-0.435-0.306-0.548V2.741C29.251,2.629,29.375,2.426,29.375,2.194z
			 M15.846-2.047c0.31,0,0.561,0.251,0.561,0.561c0,0.309-0.251,0.559-0.561,0.559c-0.31,0-0.559-0.251-0.559-0.559
			C15.287-1.796,15.537-2.047,15.846-2.047z M15.846,34.532c-0.611,0-1.109-0.496-1.109-1.109c0-0.612,0.497-1.108,1.109-1.108
			c0.614,0,1.111,0.496,1.111,1.108C16.957,34.036,16.458,34.532,15.846,34.532z M27.355,30.313c0,0.514-0.419,0.933-0.934,0.933
			H5.271c-0.514,0-0.933-0.419-0.933-0.933V1.074c0-0.516,0.418-0.934,0.933-0.934h21.151c0.515,0,0.934,0.418,0.934,0.934V30.313z"
			/>
		<g>
			<path fill="none" d="M26.422,0.141H5.271c-0.514,0-0.933,0.418-0.933,0.934v29.237c0,0.515,0.418,0.934,0.933,0.934h21.151
				c0.515,0,0.934-0.419,0.934-0.934V1.074C27.355,0.56,26.937,0.141,26.422,0.141z"/>
		</g>
	</g>
	<path fill="#A99060" d="M18.32,6.048c-1.026,0-1.911,0.836-2.319,1.709c-0.411-0.873-1.296-1.709-2.322-1.709
		c-1.418,0-2.568,1.151-2.568,2.566c0,2.883,2.908,3.639,4.89,6.489c1.872-2.832,4.888-3.697,4.888-6.489
		C20.889,7.199,19.74,6.048,18.32,6.048z"/>
	<rect x="8.369" y="17.945" fill="#333333" width="15.265" height="2.647"/>
	<rect x="8.369" y="22.646" fill="#333333" width="15.265" height="2.648"/>
</g>
</svg>
