<?xml version="1.0" encoding="utf-8"?>
<!-- Generator: Adobe Illustrator 15.1.0, SVG Export Plug-In . SVG Version: 6.00 Build 0)  -->
<!DOCTYPE svg PUBLIC "-//W3C//DTD SVG 1.1//EN" "http://www.w3.org/Graphics/SVG/1.1/DTD/svg11.dtd">
<svg version="1.1" id="Ebene_1" xmlns="http://www.w3.org/2000/svg" xmlns:xlink="http://www.w3.org/1999/xlink" x="0px" y="0px"
	 width="40px" height="40px" viewBox="0 0 40 40" enable-background="new 0 0 40 40" xml:space="preserve">
<g>
	<g>
		<path fill="#FFFFFF" d="M28.167,11.755H11.94l-7.72,8.669l15.779,19.527l15.78-19.417L28.167,11.755z M27.023,14.26l4.402,5.08
			H27.12l-5.08-5.08H27.023z M24.729,19.338h-9.459l4.729-4.729L24.729,19.338z M13.062,14.26h4.893l-5.081,5.08H8.541L13.062,14.26
			z M7.932,21.033h4.729l5.147,12.222L7.932,21.033z M19.998,34.09L14.5,21.033h10.997L19.998,34.09z M27.333,21.033h4.813
			l-9.988,12.292L27.333,21.033z"/>
	</g>
	<path fill="#FFFFFF" d="M8.085,10.321L4.259,6.493L6.34,4.411l3.707,3.707L8.085,10.321z"/>
	<path fill="#FFFFFF" d="M18.523,0.05h2.945v6.334h-2.945V0.05z"/>
	<path fill="#FFFFFF" d="M30.016,8.051l3.639-3.64l2.082,2.083l-3.786,3.788L30.016,8.051z"/>
</g>
</svg>
