<?xml version="1.0" encoding="utf-8"?>
<!-- Generator: Adobe Illustrator 15.1.0, SVG Export Plug-In . SVG Version: 6.00 Build 0)  -->
<!DOCTYPE svg PUBLIC "-//W3C//DTD SVG 1.1//EN" "http://www.w3.org/Graphics/SVG/1.1/DTD/svg11.dtd">
<svg version="1.1" id="Ebene_1" xmlns="http://www.w3.org/2000/svg" xmlns:xlink="http://www.w3.org/1999/xlink" x="0px" y="0px"
	 width="90px" height="180px" viewBox="-25 -70 90 180" enable-background="new -25 -70 90 180" xml:space="preserve">
<rect x="-25" y="-70" fill="#A99060" width="90" height="90"/>
<g>
	<g>
		<path fill="#FFFFFF" d="M28.188-33.266H11.92l-7.739,8.69L19.999-5l15.819-19.465L28.188-33.266z M27.041-30.755l4.413,5.093
			h-4.316l-5.093-5.093H27.041z M24.74-25.664h-9.483l4.741-4.741L24.74-25.664z M13.045-30.755h4.905l-5.094,5.093H8.513
			L13.045-30.755z M7.902-23.965h4.741l5.16,12.252L7.902-23.965z M19.998-10.876l-5.512-13.089h11.024L19.998-10.876z
			 M27.352-23.965h4.825L22.163-11.643L27.352-23.965z"/>
	</g>
	<path fill="#FFFFFF" d="M8.056-34.704L4.22-38.541l2.086-2.087l3.716,3.716L8.056-34.704z"/>
	<path fill="#FFFFFF" d="M18.52-45h2.952v6.35H18.52V-45z"/>
	<path fill="#FFFFFF" d="M30.04-36.979l3.648-3.649l2.087,2.088l-3.796,3.797L30.04-36.979z"/>
</g>
<g>
	<g>
		<path fill="#333333" d="M28.188,56.733H11.92l-7.739,8.69L19.999,85l15.819-19.466L28.188,56.733z M27.041,59.244l4.413,5.093
			h-4.316l-5.093-5.093H27.041z M24.74,64.335h-9.483l4.741-4.74L24.74,64.335z M13.045,59.244h4.905l-5.094,5.093H8.513
			L13.045,59.244z M7.902,66.035h4.741l5.16,12.252L7.902,66.035z M19.998,79.124l-5.512-13.089h11.024L19.998,79.124z
			 M27.352,66.035h4.825L22.163,78.357L27.352,66.035z"/>
	</g>
	<path fill="#A99060" d="M8.056,55.295L4.22,51.459l2.086-2.087l3.716,3.716L8.056,55.295z"/>
	<path fill="#A99060" d="M18.52,45h2.952v6.35H18.52V45z"/>
	<path fill="#A99060" d="M30.04,53.021l3.648-3.648l2.087,2.088l-3.796,3.797L30.04,53.021z"/>
</g>
<g>
	<path fill="#A99060" d="M63,22v86h-86V22H63 M65,20h-90v90h90V20L65,20z"/>
</g>
</svg>
