<?xml version="1.0" encoding="utf-8"?>
<!-- Generator: Adobe Illustrator 20.1.0, SVG Export Plug-In . SVG Version: 6.00 Build 0)  -->
<svg version="1.1" id="Layer_1" xmlns="http://www.w3.org/2000/svg" xmlns:xlink="http://www.w3.org/1999/xlink" x="0px" y="0px"
	 viewBox="0 0 196 108" style="enable-background:new 0 0 196 108;" xml:space="preserve">
<style type="text/css">
	.st0{fill:#404041;}
	.st1{fill:#A99060;}
</style>
<g>
	<g>
		<path class="st0" d="M94.6,18.8c0,0-3-2.2-4.7-0.4c-1.6,1.7-0.5-2.8,2.2-4.4c1.9-1.2,4.9-1.5,3.6-3c-0.9-1.1-2.6-0.7-3.4-0.7
			c-0.4,0-0.6-0.2-0.2-0.6c1.1-1.3,4.4-4.1,11.5-1.7c5,1.7,11.8-2.1,14.1-3.4c0.6-0.3,0.5-0.1,0.2,0.2c-1.4,1-4.7,3.6-8.7,5
			c-3.9,1.3-10.7-1.6-9.3,1.3c1.7-0.4,3.2-0.3,4.8,0.1c0.4,0.1,0.4,0.4,0.1,0.5c-1.1,0.1-1.5,0.3-2.3,1c-1.5,1.4-3.9,0.9-4.5,1
			c-1.7,0.1-4.7,1.9-3.2,3.6c1.1,1.2,4.6,1.3,6.5,1.2c0.8,0,1,0.1,0.3,0.4c-2.4,1.3-9.3,3.8-10.5,12.7c-1.3,9.7,8.3,23.5,3,22.8
			c-1.7-0.2-3.9-1.5-5.8-2.6c-4.4-2.5-7.5-5.4-9.3-7.7c-3-3.8-0.8-9.8,0.3-12c2.9-5.4,8.7-10.2,11.4-11.8
			C93.3,18.8,94.6,18.8,94.6,18.8z"/>
		<path class="st1" d="M116.4,18.3c1.7-1.8,5.6-6,6.9-8.6c1.3-2.6,1.3-5.4,0.9-5.7c-0.4-0.3-1.4-0.3-1.3,0.1
			c0.1,0.4,1.5,0.8,0.9,1.3c0,0-0.8,1-3.2-0.3c-2.4-1.3-1.2-2.6,0.7-3.7c1.9-1.1,3-1.4,4.5,1c1.2,1.9,0.8,6.4-1.7,9.8
			c-1.6,2.1-5.6,5-7.5,6.3C116,18.9,115.9,18.8,116.4,18.3z"/>
		<path class="st0" d="M78.1,13.9c4.9-3.1,10.8-4.2,13.3-3c2.7,1.2-2.3,1.9-5.6,6.6c-1.5,2.2-2.4,2-0.6-0.9c1-1.6-0.1-3.4-4.2-0.9
			c-5.8,3.5-8.6,6.1-0.6,6.5c3.7,0.2,6-3,7.1-4.9c0.3-0.5,0.8-0.4,0.6,0.1c-0.5,1.2-1.3,2.9-2.6,4.3c-1.8,1.9-3.2,1.9-5.5,3.5
			c-4.1,2.9-5.7,5.5-5.6,11.4c0,0.7-0.6,0.4-0.8,0.3c-1.1-1.2-3.6-5.8-1.9-8.6c2.6-4.1,6.7-4.3,6.7-4.3s-8.1-1.4-9-3
			C68.9,19.5,74.3,16.3,78.1,13.9z"/>
		<path class="st1" d="M122.6,28.4c-1.4,0.7-3.4,0.7-7.3-2.2c-2.8-2.1-2.7-4.8-2.1-6.2c0.2-0.5-0.2-0.3-0.2-0.3
			c-5.1,6.3,0.4,9.6,7.1,10.1c0.3,0,3.7-0.5,1,0.9c-5.6,3.1-21.2-3.9-23.8,8.6c-1.3,6.2,2.3,12.2,4.5,14.8c1,1.2,2.7,1.2,3.4,1.1
			c3.4-0.6,6.8-2.3,8.1-3.4c1.4-1.1,0.1-1.4-0.5-1.5c-6.6-1.7-8.7-4.3-9.4-6.1c-0.3-0.8,0.3-0.7,0.6-0.4c4.4,4,8.5,2.1,6.5,1.7
			c-2.3-0.5-5.8-3.4-3.5-8.1c2.6-5.4,9-3.1,13.2-3.4C124.6,33.7,125.1,27.2,122.6,28.4z"/>
	</g>
	<g>
		<path class="st0" d="M2.9,107.2v-4.9H1.5c-0.2,0-0.3-0.2-0.3-0.5v-0.3c0-0.3,0.1-0.5,0.3-0.5h4.2c0.2,0,0.3,0.1,0.3,0.5v0.3
			c0,0.3-0.1,0.5-0.3,0.5H4.3v4.9c0,0.2-0.2,0.3-0.5,0.3H3.5C3.1,107.4,2.9,107.4,2.9,107.2z"/>
		<path class="st0" d="M11.2,107.2v-5.8c0-0.2,0.2-0.3,0.5-0.3H12c0.4,0,0.5,0.1,0.5,0.3v2.2h2.4v-2.2c0-0.2,0.2-0.3,0.5-0.3h0.3
			c0.4,0,0.5,0.1,0.5,0.3v5.8c0,0.2-0.2,0.3-0.5,0.3h-0.3c-0.4,0-0.5-0.1-0.5-0.3v-2.4h-2.4v2.4c0,0.2-0.2,0.3-0.5,0.3h-0.3
			C11.4,107.4,11.2,107.4,11.2,107.2z"/>
		<path class="st0" d="M21.9,107.1v-5.6c0-0.2,0.1-0.4,0.4-0.4h3.2c0.2,0,0.3,0.1,0.3,0.5v0.3c0,0.3-0.1,0.5-0.3,0.5h-2.2v1.3h2
			c0.2,0,0.3,0.1,0.3,0.4v0.3c0,0.3-0.1,0.4-0.3,0.4h-2v1.5h2.2c0.2,0,0.3,0.2,0.3,0.5v0.3c0,0.3-0.1,0.5-0.3,0.5h-3.2
			C22,107.4,21.9,107.3,21.9,107.1z"/>
		<path class="st0" d="M37.6,107.2v-5.8c0-0.2,0.2-0.3,0.5-0.3h0.5c0.3,0,0.5,0.1,0.6,0.2l1.6,2.8l1.6-2.8c0.1-0.2,0.3-0.2,0.6-0.2
			h0.5c0.4,0,0.5,0.1,0.5,0.3v5.8c0,0.2-0.2,0.3-0.5,0.3h-0.3c-0.4,0-0.5-0.1-0.5-0.3v-3.7l0,0l-1.3,2.3c-0.1,0.1-0.2,0.2-0.4,0.2
			h-0.3c-0.2,0-0.3-0.1-0.4-0.2l-1.3-2.3l0,0v3.7c0,0.2-0.2,0.3-0.5,0.3h-0.3C37.8,107.4,37.6,107.4,37.6,107.2z"/>
		<path class="st0" d="M49.5,107.1v-5.6c0-0.2,0.1-0.4,0.4-0.4h3.2c0.2,0,0.3,0.1,0.3,0.5v0.3c0,0.3-0.1,0.5-0.3,0.5h-2.2v1.3h2
			c0.2,0,0.3,0.1,0.3,0.4v0.3c0,0.3-0.1,0.4-0.3,0.4h-2v1.5h2.2c0.2,0,0.3,0.2,0.3,0.5v0.3c0,0.3-0.1,0.5-0.3,0.5h-3.2
			C49.6,107.4,49.5,107.3,49.5,107.1z"/>
		<path class="st0" d="M58.7,107.1v-5.6c0-0.2,0.1-0.4,0.4-0.4h2c0.9,0,1.6,0.3,2.1,0.8c0.5,0.5,0.7,1.3,0.7,2.3
			c0,1-0.2,1.8-0.7,2.3c-0.5,0.5-1.2,0.8-2.1,0.8h-2C58.8,107.4,58.7,107.3,58.7,107.1z M60.1,106.2h1c0.5,0,0.8-0.2,1.1-0.5
			c0.2-0.3,0.4-0.8,0.4-1.5c0-0.6-0.1-1.1-0.4-1.5c-0.2-0.3-0.6-0.5-1.1-0.5h-1V106.2z"/>
		<path class="st0" d="M69.2,107.2v-5.8c0-0.2,0.2-0.3,0.5-0.3H70c0.4,0,0.5,0.1,0.5,0.3v5.8c0,0.2-0.2,0.3-0.5,0.3h-0.3
			C69.4,107.5,69.2,107.4,69.2,107.2z"/>
		<path class="st0" d="M75.5,107.2c0,0,0-0.1,0-0.2l1.9-5.8c0-0.1,0.2-0.2,0.5-0.2h0.5c0.3,0,0.5,0.1,0.5,0.2l1.9,5.8
			c0,0.1,0,0.1,0,0.2c0,0.1-0.1,0.2-0.4,0.2h-0.4c-0.3,0-0.5-0.1-0.5-0.2l-0.4-1.1h-2.1l-0.4,1.1c0,0.1-0.2,0.2-0.4,0.2H76
			C75.7,107.4,75.5,107.4,75.5,107.2z M77.5,105h1.3l-0.5-1.6l-0.1-0.6h0c-0.1,0.3-0.1,0.5-0.1,0.6L77.5,105z"/>
		<path class="st0" d="M92.2,104.3c0-2.1,1-3.2,3-3.2c0.4,0,0.8,0.1,1.2,0.2c0.4,0.1,0.6,0.3,0.6,0.5c0,0.1-0.1,0.3-0.2,0.5
			c-0.1,0.2-0.3,0.3-0.4,0.3c0,0-0.1,0-0.2-0.1c-0.3-0.1-0.7-0.2-1.1-0.2c-1,0-1.5,0.7-1.5,2s0.5,2,1.5,2c0.4,0,0.8-0.1,1.2-0.3
			c0.1-0.1,0.2-0.1,0.2-0.1c0.1,0,0.2,0.1,0.4,0.3c0.1,0.2,0.2,0.4,0.2,0.5c0,0.2-0.2,0.4-0.7,0.6c-0.4,0.1-0.9,0.2-1.3,0.2
			c-1,0-1.7-0.3-2.2-0.8C92.4,106.2,92.2,105.4,92.2,104.3z"/>
		<path class="st0" d="M102.8,106.7c-0.5-0.6-0.7-1.4-0.7-2.4c0-1,0.2-1.8,0.7-2.4c0.5-0.6,1.2-0.8,2.1-0.8s1.6,0.3,2.1,0.8
			s0.7,1.4,0.7,2.4c0,1-0.2,1.8-0.7,2.4s-1.2,0.8-2.1,0.8S103.3,107.2,102.8,106.7z M103.8,105.8c0.2,0.3,0.6,0.5,1.1,0.5
			c0.5,0,0.8-0.2,1.1-0.5c0.2-0.3,0.4-0.9,0.4-1.5c0-0.7-0.1-1.2-0.4-1.5c-0.2-0.3-0.6-0.5-1.1-0.5c-0.5,0-0.8,0.2-1.1,0.5
			c-0.2,0.3-0.4,0.9-0.4,1.5C103.5,104.9,103.6,105.4,103.8,105.8z"/>
		<path class="st0" d="M113.1,107.2v-5.8c0-0.2,0.2-0.3,0.5-0.3h0.4c0.3,0,0.5,0.1,0.6,0.2l2.3,3.6v-3.6c0-0.2,0.2-0.3,0.5-0.3h0.3
			c0.4,0,0.5,0.1,0.5,0.3v5.8c0,0.2-0.2,0.3-0.5,0.3h-0.3c-0.3,0-0.5-0.1-0.6-0.2l-2.4-3.7v3.6c0,0.2-0.2,0.3-0.5,0.3h-0.3
			C113.3,107.4,113.1,107.4,113.1,107.2z"/>
		<path class="st0" d="M123.5,106.7c0-0.1,0.1-0.3,0.2-0.5c0.1-0.2,0.3-0.3,0.3-0.3c0,0,0.1,0,0.2,0.1c0.4,0.2,0.7,0.3,1.1,0.3
			c0.6,0,0.8-0.2,0.8-0.7c0-0.2-0.1-0.4-0.3-0.5c-0.2-0.1-0.4-0.2-0.6-0.3c-0.3-0.1-0.5-0.2-0.7-0.3c-0.2-0.1-0.5-0.3-0.6-0.6
			c-0.2-0.3-0.3-0.6-0.3-1s0.1-0.8,0.3-1c0.4-0.5,1-0.8,1.8-0.8c0.4,0,0.8,0.1,1.1,0.2c0.3,0.1,0.5,0.3,0.5,0.4
			c0,0.1-0.1,0.3-0.2,0.5c-0.1,0.2-0.2,0.3-0.3,0.3c0,0-0.1,0-0.2-0.1c-0.2-0.1-0.5-0.2-0.8-0.2c-0.3,0-0.5,0.1-0.6,0.2
			c-0.1,0.1-0.2,0.2-0.2,0.4s0.1,0.3,0.3,0.4c0.2,0.1,0.4,0.2,0.6,0.3c0.2,0.1,0.5,0.2,0.7,0.3c0.3,0.1,0.5,0.3,0.6,0.6
			c0.2,0.3,0.3,0.6,0.3,1c0,0.4-0.1,0.7-0.2,1c-0.1,0.3-0.3,0.5-0.5,0.6c-0.4,0.3-0.9,0.4-1.4,0.4s-1-0.1-1.4-0.3
			C123.7,107.1,123.5,106.9,123.5,106.7z"/>
		<path class="st0" d="M132.7,105.3v-3.9c0-0.2,0.2-0.3,0.5-0.3h0.3c0.4,0,0.5,0.1,0.5,0.3v3.8c0,0.3,0.1,0.6,0.3,0.8
			c0.2,0.2,0.5,0.3,0.9,0.3c0.4,0,0.6-0.1,0.9-0.3c0.2-0.2,0.3-0.5,0.3-0.8v-3.8c0-0.2,0.2-0.3,0.5-0.3h0.3c0.4,0,0.5,0.1,0.5,0.3
			v3.9c0,0.7-0.2,1.2-0.7,1.6c-0.4,0.4-1.1,0.6-1.9,0.6c-0.8,0-1.4-0.2-1.9-0.6C132.9,106.5,132.7,106,132.7,105.3z"/>
		<path class="st0" d="M143.4,107.1v-5.7c0-0.2,0.2-0.3,0.5-0.3h0.3c0.4,0,0.5,0.1,0.5,0.3v4.9h2c0.2,0,0.3,0.2,0.3,0.5v0.3
			c0,0.3-0.1,0.5-0.3,0.5h-3C143.5,107.4,143.4,107.3,143.4,107.1z"/>
		<path class="st0" d="M153.2,107.2v-4.9h-1.4c-0.2,0-0.3-0.2-0.3-0.5v-0.3c0-0.3,0.1-0.5,0.3-0.5h4.2c0.2,0,0.3,0.1,0.3,0.5v0.3
			c0,0.3-0.1,0.5-0.3,0.5h-1.4v4.9c0,0.2-0.2,0.3-0.5,0.3h-0.3C153.3,107.4,153.2,107.4,153.2,107.2z"/>
		<path class="st0" d="M160.7,107.2c0,0,0-0.1,0-0.2l1.9-5.8c0-0.1,0.2-0.2,0.5-0.2h0.5c0.3,0,0.5,0.1,0.5,0.2l1.9,5.8
			c0,0.1,0,0.1,0,0.2c0,0.1-0.1,0.2-0.4,0.2h-0.4c-0.3,0-0.5-0.1-0.5-0.2l-0.4-1.1h-2.1l-0.4,1.1c0,0.1-0.2,0.2-0.4,0.2h-0.4
			C160.8,107.4,160.7,107.4,160.7,107.2z M162.7,105h1.3l-0.5-1.6l-0.1-0.6h0c-0.1,0.3-0.1,0.5-0.1,0.6L162.7,105z"/>
		<path class="st0" d="M171.1,107.2v-5.8c0-0.2,0.2-0.3,0.5-0.3h0.4c0.3,0,0.5,0.1,0.6,0.2l2.3,3.6v-3.6c0-0.2,0.2-0.3,0.5-0.3h0.3
			c0.4,0,0.5,0.1,0.5,0.3v5.8c0,0.2-0.2,0.3-0.5,0.3h-0.3c-0.3,0-0.5-0.1-0.6-0.2l-2.4-3.7v3.6c0,0.2-0.2,0.3-0.5,0.3h-0.3
			C171.3,107.4,171.1,107.4,171.1,107.2z"/>
		<path class="st0" d="M183,107.2v-4.9h-1.4c-0.2,0-0.3-0.2-0.3-0.5v-0.3c0-0.3,0.1-0.5,0.3-0.5h4.2c0.2,0,0.3,0.1,0.3,0.5v0.3
			c0,0.3-0.1,0.5-0.3,0.5h-1.4v4.9c0,0.2-0.2,0.3-0.5,0.3h-0.3C183.1,107.4,183,107.4,183,107.2z"/>
		<path class="st0" d="M190.7,106.7c0-0.1,0.1-0.3,0.2-0.5c0.1-0.2,0.2-0.3,0.3-0.3c0,0,0.1,0,0.2,0.1c0.4,0.2,0.7,0.3,1.1,0.3
			c0.6,0,0.8-0.2,0.8-0.7c0-0.2-0.1-0.4-0.3-0.5c-0.2-0.1-0.4-0.2-0.6-0.3s-0.5-0.2-0.7-0.3c-0.2-0.1-0.5-0.3-0.6-0.6
			c-0.2-0.3-0.3-0.6-0.3-1s0.1-0.8,0.3-1c0.4-0.5,1-0.8,1.8-0.8c0.4,0,0.8,0.1,1.1,0.2c0.3,0.1,0.5,0.3,0.5,0.4
			c0,0.1-0.1,0.3-0.2,0.5c-0.1,0.2-0.2,0.3-0.3,0.3c0,0-0.1,0-0.2-0.1c-0.2-0.1-0.5-0.2-0.8-0.2c-0.3,0-0.5,0.1-0.6,0.2
			c-0.1,0.1-0.2,0.2-0.2,0.4s0.1,0.3,0.3,0.4c0.2,0.1,0.4,0.2,0.6,0.3c0.2,0.1,0.5,0.2,0.7,0.3c0.3,0.1,0.5,0.3,0.6,0.6
			c0.2,0.3,0.3,0.6,0.3,1c0,0.4-0.1,0.7-0.2,1c-0.1,0.3-0.3,0.5-0.5,0.6c-0.4,0.3-0.9,0.4-1.4,0.4c-0.6,0-1-0.1-1.4-0.3
			C190.8,107.1,190.7,106.9,190.7,106.7z"/>
	</g>
	<g>
		<polygon class="st0" points="12.7,83.7 5.6,68.8 1.2,92.5 5.8,92.5 7.5,82.7 12.7,93.8 17.9,82.7 19.6,92.5 24.2,92.5 19.8,68.8 
					"/>
	</g>
	<g>
		<polygon class="st0" points="39,84.6 47.1,84.6 47.1,80.3 39,80.3 39,74.7 48,74.7 48,70.4 34.6,70.4 34.6,92.4 48.2,92.4 
			48.2,88 39,88 		"/>
	</g>
	<g>
		<path class="st0" d="M74.2,73.6c-1-1-2.1-1.8-3.4-2.4c-1.3-0.6-2.7-0.9-4.2-0.9h-7.9v22.1h7.9c1.5,0,3-0.3,4.3-0.9
			c1.3-0.6,2.4-1.4,3.4-2.4c1-1,1.7-2.2,2.2-3.5c0.5-1.3,0.8-2.8,0.8-4.3c0-1.5-0.3-3-0.8-4.3C75.9,75.8,75.2,74.6,74.2,73.6z
			 M72.8,81.4c0,1-0.2,1.9-0.5,2.7c-0.3,0.8-0.8,1.6-1.4,2.2c-0.6,0.6-1.3,1.1-2.1,1.5c-0.8,0.4-1.7,0.5-2.6,0.5h-3.1V74.5h3.1
			c0.9,0,1.8,0.2,2.6,0.5c0.8,0.4,1.5,0.9,2.1,1.5c0.6,0.6,1,1.4,1.4,2.2C72.6,79.5,72.8,80.5,72.8,81.4z"/>
	</g>
	<g>
		<rect x="87.9" y="70.4" class="st0" width="4.4" height="22.1"/>
	</g>
	<g>
		<path class="st0" d="M101.7,92.4h4.6l0.6-1.6h8.5l0.6,1.6h4.6l-9.5-23.3L101.7,92.4z M113.9,86.7h-5.3l2.6-6.8L113.9,86.7z"/>
	</g>
	<g>
		<polygon class="st1" points="134.5,82.2 129.7,70.4 125.1,70.4 134.5,93.8 144,70.4 139.3,70.4 		"/>
	</g>
	<g>
		<path class="st1" d="M163.6,84.9c0,0.4-0.1,0.9-0.3,1.3c-0.2,0.4-0.4,0.7-0.7,1c-0.3,0.3-0.7,0.5-1.1,0.7c-0.8,0.3-1.8,0.3-2.6,0
			c-0.4-0.2-0.7-0.4-1-0.7c-0.3-0.3-0.5-0.7-0.7-1.1c-0.2-0.4-0.3-0.8-0.3-1.3V70.4h-4.4v14.5c0,1.1,0.2,2,0.6,3
			c0.4,0.9,0.9,1.7,1.6,2.4c0.7,0.7,1.5,1.2,2.4,1.6c0.9,0.4,1.9,0.6,3,0.6c1.1,0,2.1-0.2,3-0.6c0.9-0.4,1.7-0.9,2.4-1.6
			c0.7-0.7,1.3-1.5,1.7-2.4c0.4-0.9,0.6-1.9,0.6-3V70.4h-4.4V84.9z"/>
	</g>
	<g>
		<polygon class="st1" points="188,79.1 194.4,70.4 189.2,70.4 183.4,78.3 183.4,70.4 179,70.4 179,92.4 183.4,92.4 183.4,85.2 
			185.1,82.9 190,92.4 194.8,92.4 		"/>
	</g>
</g>
</svg>
