<?xml version="1.0" encoding="utf-8"?>
<!-- Generator: Adobe Illustrator 15.1.0, SVG Export Plug-In . SVG Version: 6.00 Build 0)  -->
<!DOCTYPE svg PUBLIC "-//W3C//DTD SVG 1.1//EN" "http://www.w3.org/Graphics/SVG/1.1/DTD/svg11.dtd">
<svg version="1.1" id="Ebene_1" xmlns="http://www.w3.org/2000/svg" xmlns:xlink="http://www.w3.org/1999/xlink" x="0px" y="0px"
	 width="40px" height="40px" viewBox="-4 -4 40 40" enable-background="new -4 -4 40 40" xml:space="preserve">
<g>
	<g>
		<path fill="#333333" d="M33.592-1.533H-1.59c-1.305,0-2.369,1.063-2.369,2.371v24.26c0,1.308,1.064,2.368,2.369,2.368h13.354
			c-0.112,0.885-0.429,2.349-1.1,3.755H8.778v1.018c0,0.713,0.58,1.295,1.292,1.295h11.859c0.713,0,1.292-0.582,1.292-1.295v-1.018
			h-1.887c-0.67-1.405-0.987-2.868-1.1-3.755h13.354c1.306,0,2.368-1.062,2.368-2.368V0.838C35.959-0.47,34.895-1.533,33.592-1.533z
			 M-0.737,2.05c0-0.198,0.161-0.36,0.36-0.36h32.752c0.199,0,0.361,0.162,0.361,0.36v16.983c0,0.197-0.162,0.358-0.361,0.358
			H-0.376c-0.199,0-0.36-0.161-0.36-0.358V2.05z M12.203,31.221c0.667-1.605,0.896-3.087,0.97-3.755h5.653
			c0.074,0.668,0.303,2.149,0.97,3.755H12.203z M34.252,22.313v2.784c0,0.367-0.295,0.662-0.66,0.662H-1.59
			c-0.365,0-0.663-0.295-0.663-0.662v-2.784H34.252z"/>
	</g>
	<path fill="#A99060" d="M19.189,4.56c-1.41,0-2.626,1.149-3.188,2.348C15.438,5.71,14.222,4.56,12.81,4.56
		c-1.947,0-3.526,1.581-3.526,3.527c0,3.959,3.994,4.998,6.717,8.912c2.572-3.89,6.715-5.078,6.715-8.912
		C22.717,6.141,21.138,4.56,19.189,4.56z"/>
</g>
</svg>
