<?xml version="1.0" encoding="utf-8"?>
<!-- Generator: Adobe Illustrator 21.0.0, SVG Export Plug-In . SVG Version: 6.00 Build 0)  -->
<svg version="1.1" id="Layer_1" xmlns="http://www.w3.org/2000/svg" xmlns:xlink="http://www.w3.org/1999/xlink" x="0px" y="0px"
	 viewBox="0 0 79.2 74.6" style="enable-background:new 0 0 79.2 74.6;" xml:space="preserve">
<style type="text/css">
	.st0{fill:#404041;}
	.st1{fill:#A99060;}
</style>
<g>
	<path class="st0" d="M36,18.8c0,0-3-2.2-4.7-0.4c-1.6,1.7-0.5-2.7,2.1-4.4c1.9-1.2,4.9-1.5,3.5-3c-0.9-1-2.5-0.7-3.4-0.6
		c-0.4,0-0.6-0.2-0.2-0.5c1.1-1.2,4.4-4,11.4-1.7c5,1.7,11.7-2,13.9-3.4c0.6-0.3,0.5-0.1,0.2,0.2c-1.4,1-4.6,3.6-8.6,4.9
		c-3.9,1.3-10.6-1.6-9.2,1.3c1.7-0.4,3.2-0.3,4.7,0.1c0.4,0.1,0.4,0.4,0.1,0.5c-1,0.1-1.5,0.3-2.3,1c-1.5,1.4-3.9,0.9-4.5,1
		c-1.7,0.1-4.6,1.9-3.2,3.6c1,1.2,4.5,1.3,6.5,1.2c0.8,0,0.9,0.1,0.3,0.4c-2.4,1.3-9.2,3.8-10.4,12.6c-1.3,9.6,8.2,23.2,3,22.5
		c-1.7-0.2-3.9-1.5-5.8-2.5c-4.3-2.4-7.4-5.3-9.2-7.6c-3-3.7-0.8-9.7,0.3-11.9c2.9-5.4,8.6-10.1,11.3-11.7
		C34.8,18.9,36,18.8,36,18.8z"/>
	<path class="st1" d="M57.6,18.3c1.7-1.8,5.5-6,6.8-8.5c1.3-2.6,1.3-5.4,0.9-5.7C64.9,3.8,64,3.8,64,4.3c0.1,0.4,1.5,0.8,0.9,1.3
		c0,0-0.8,1-3.2-0.3c-2.4-1.3-1.2-2.6,0.7-3.7c1.9-1.1,2.9-1.4,4.5,1c1.2,1.9,0.8,6.4-1.7,9.7c-1.5,2-5.5,4.9-7.4,6.3
		C57.2,18.9,57.1,18.9,57.6,18.3z"/>
	<path class="st0" d="M19.7,14c4.9-3,10.6-4.2,13.2-3c2.7,1.2-2.3,1.8-5.5,6.5c-1.5,2.1-2.4,2-0.6-0.9c1-1.6-0.1-3.3-4.2-0.8
		c-5.7,3.5-8.5,6.1-0.6,6.4c3.7,0.2,6-3,7.1-4.8c0.3-0.5,0.8-0.4,0.6,0.1c-0.5,1.1-1.3,2.8-2.6,4.3c-1.7,1.9-3.2,1.8-5.4,3.4
		c-4,2.9-5.7,5.5-5.6,11.3c0,0.7-0.6,0.4-0.8,0.3c-1.1-1.1-3.6-5.7-1.8-8.5c2.5-4,6.7-4.2,6.7-4.2s-8.1-1.4-8.9-3
		C10.6,19.5,16,16.3,19.7,14z"/>
	<path class="st1" d="M63.8,28.4c-1.3,0.7-3.4,0.7-7.2-2.2c-2.8-2.1-2.7-4.8-2-6.2c0.2-0.5-0.2-0.3-0.2-0.3c-5.1,6.2,0.4,9.5,7.1,10
		c0.3,0,3.6-0.5,1,0.9c-5.5,3.1-21-3.9-23.6,8.5c-1.3,6.2,2.3,12.1,4.4,14.7c1,1.2,2.7,1.2,3.3,1.1c3.4-0.6,6.7-2.3,8.1-3.3
		c1.4-1,0.1-1.4-0.5-1.5c-6.6-1.6-8.6-4.2-9.3-6c-0.3-0.8,0.3-0.7,0.6-0.4c4.3,3.9,8.4,2.1,6.4,1.7c-2.3-0.5-5.7-3.4-3.5-8
		c2.6-5.3,8.9-3.1,13.1-3.4C65.8,33.6,66.3,27.1,63.8,28.4z"/>
</g>
<g>
	<g>
		<polygon class="st0" points="5,69.9 2.2,63.9 0.4,73.4 2.2,73.4 2.9,69.5 5,74 7.1,69.5 7.8,73.4 9.7,73.4 7.9,63.9 		"/>
	</g>
	<g>
		<polygon class="st0" points="15.6,70.2 18.9,70.2 18.9,68.5 15.6,68.5 15.6,66.3 19.3,66.3 19.3,64.5 13.8,64.5 13.8,73.4 
			19.3,73.4 19.3,71.6 15.6,71.6 		"/>
	</g>
	<g>
		<path class="st0" d="M29.8,65.8c-0.4-0.4-0.8-0.7-1.4-1c-0.5-0.2-1.1-0.4-1.7-0.4h-3.2v8.9h3.2c0.6,0,1.2-0.1,1.7-0.4
			c0.5-0.2,1-0.6,1.4-1c0.4-0.4,0.7-0.9,0.9-1.4c0.2-0.5,0.3-1.1,0.3-1.7c0-0.6-0.1-1.2-0.3-1.7C30.5,66.7,30.2,66.2,29.8,65.8z
			 M29.3,69c0,0.4-0.1,0.8-0.2,1.1c-0.1,0.3-0.3,0.6-0.5,0.9c-0.2,0.3-0.5,0.5-0.8,0.6c-0.3,0.1-0.7,0.2-1.1,0.2h-1.3v-5.6h1.3
			c0.4,0,0.7,0.1,1,0.2c0.3,0.1,0.6,0.3,0.8,0.6c0.2,0.3,0.4,0.6,0.5,0.9C29.2,68.2,29.3,68.6,29.3,69z"/>
	</g>
	<g>
		<rect x="35.3" y="64.5" class="st0" width="1.8" height="8.9"/>
	</g>
	<g>
		<path class="st0" d="M40.9,73.4h1.9l0.3-0.7h3.4l0.3,0.7h1.9L44.7,64L40.9,73.4z M45.8,71.1h-2.1l1.1-2.7L45.8,71.1z"/>
	</g>
	<g>
		<polygon class="st1" points="54.1,69.3 52.2,64.5 50.3,64.5 54.1,73.9 57.9,64.5 56.1,64.5 		"/>
	</g>
	<g>
		<path class="st1" d="M65.8,70.4c0,0.2,0,0.3-0.1,0.5c-0.1,0.2-0.2,0.3-0.3,0.4c-0.1,0.1-0.3,0.2-0.4,0.3c-0.3,0.1-0.7,0.1-1,0
			c-0.2-0.1-0.3-0.2-0.4-0.3c-0.1-0.1-0.2-0.3-0.3-0.4c-0.1-0.2-0.1-0.3-0.1-0.5v-5.9h-1.8v5.9c0,0.4,0.1,0.8,0.2,1.2
			c0.2,0.4,0.4,0.7,0.7,1c0.3,0.3,0.6,0.5,1,0.6c0.4,0.2,0.8,0.2,1.2,0.2c0.4,0,0.8-0.1,1.2-0.2c0.4-0.2,0.7-0.4,1-0.6
			c0.3-0.3,0.5-0.6,0.7-1c0.2-0.4,0.2-0.8,0.2-1.2v-5.9h-1.8V70.4z"/>
	</g>
	<g>
		<polygon class="st1" points="75.7,68 78.3,64.5 76.2,64.5 73.8,67.7 73.8,64.5 72,64.5 72,73.4 73.8,73.4 73.8,70.5 74.5,69.6 
			76.5,73.4 78.4,73.4 		"/>
	</g>
</g>
</svg>
