<svg xmlns="http://www.w3.org/2000/svg" width="36" height="36" viewBox="0 0 36 36"><defs><style>.cls-1{fill:#3a3a3a;}</style></defs><title>ic_twitter_box</title><g id="Layer_2" data-name="Layer 2"><g id="HEADER"><g id="ic_twitter_box"><g id="text"><g id="TEXT_box_Image" data-name="TEXT box Image"><path class="cls-1" d="M27.229,12.276a7.611,7.611,0,0,1-2.175.6,3.8,3.8,0,0,0,1.665-2.1,7.585,7.585,0,0,1-2.405.919,3.789,3.789,0,0,0-6.453,3.453,10.748,10.748,0,0,1-7.805-3.956,3.793,3.793,0,0,0,1.171,5.056,3.773,3.773,0,0,1-1.714-.474,3.791,3.791,0,0,0,3.037,3.761,3.8,3.8,0,0,1-1.71.064,3.789,3.789,0,0,0,3.538,2.63A7.617,7.617,0,0,1,8.771,23.8a10.774,10.774,0,0,0,16.582-8.94q0-.312-.014-.624A7.723,7.723,0,0,0,27.229,12.276Z"/></g></g><path class="cls-1" d="M36,36H0V0H36ZM1,35H35V1H1Z"/></g></g></g></svg>